<?xml version="1.0" encoding="utf-8"?>
<!-- Generator: Adobe Illustrator 24.3.0, SVG Export Plug-In . SVG Version: 6.00 Build 0)  -->
<svg version="1.1" id="Layer_1" xmlns="http://www.w3.org/2000/svg" xmlns:xlink="http://www.w3.org/1999/xlink" x="0px" y="0px"
	 viewBox="0 0 512 512" style="enable-background:new 0 0 512 512;" xml:space="preserve">
<style type="text/css">
	.st0{fill:none;stroke:#D5C7C1;stroke-miterlimit:10;}
</style>
<path d="M249.7,287.5v-81.9c0-3.4-2.8-6.2-6.2-6.2c-3.4,0-6.2,2.8-6.2,6.2v81.9c-10.9,2.8-19,12.7-19,24.5
	c0,13.9,11.3,25.2,25.2,25.2s25.2-11.3,25.2-25.2C268.7,300.2,260.6,290.2,249.7,287.5z M243.5,324.7c-7.1,0-12.8-5.7-12.8-12.8
	c0-7.1,5.7-12.8,12.8-12.8c7.1,0,12.8,5.7,12.8,12.8C256.3,319,250.6,324.7,243.5,324.7z"/>
<path d="M274.3,272.5v-91.6c0-17-13.8-30.8-30.8-30.8c-17,0-30.8,13.8-30.8,30.8v91.6c-12.1,9.5-19.3,24-19.3,39.5
	c0,27.6,22.5,50.1,50.1,50.1c27.6,0,50.1-22.5,50.1-50.1C293.6,296.4,286.4,281.9,274.3,272.5z M243.5,349.6
	c-20.8,0-37.7-16.9-37.7-37.7c0-12.5,6.2-24.1,16.5-31.2c1.7-1.2,2.7-3.1,2.7-5.1v-94.8c0-10.2,8.3-18.4,18.4-18.4
	c10.1,0,18.4,8.3,18.4,18.4v94.8c0,2.1,1,4,2.7,5.1c10.4,7,16.5,18.7,16.5,31.2C281.2,332.7,264.3,349.6,243.5,349.6z"/>
<path d="M312.2,249.2H293c-3.4,0-6.2,2.8-6.2,6.2c0,3.4,2.8,6.2,6.2,6.2h19.3c3.4,0,6.2-2.8,6.2-6.2
	C318.4,251.9,315.6,249.2,312.2,249.2z"/>
<path d="M312.2,224.3H293c-3.4,0-6.2,2.8-6.2,6.2c0,3.4,2.8,6.2,6.2,6.2h19.3c3.4,0,6.2-2.8,6.2-6.2
	C318.4,227.1,315.6,224.3,312.2,224.3z"/>
<path d="M312.2,199.5H293c-3.4,0-6.2,2.8-6.2,6.2c0,3.4,2.8,6.2,6.2,6.2h19.3c3.4,0,6.2-2.8,6.2-6.2
	C318.4,202.2,315.6,199.5,312.2,199.5z"/>
<path d="M293,187h19.3c3.4,0,6.2-2.8,6.2-6.2c0-3.4-2.8-6.2-6.2-6.2H293c-3.4,0-6.2,2.8-6.2,6.2C286.8,184.3,289.5,187,293,187z"/>
<polygon class="st0" points="512,511.8 0.2,511.8 241.2,0 242,0 "/>
</svg>
